<svg xmlns="http://www.w3.org/2000/svg" width="58" height="62.792" viewBox="0 0 58 62.792">
  <g id="Group_385" data-name="Group 385" transform="translate(0)">
    <path id="Path_21" data-name="Path 21" d="M14.757,33.092a23.314,23.314,0,0,1-7.015-1.074,34.591,34.591,0,0,1-5.587-2.333c-.218-.112-.235-.207-.114-.41.675-1.139,1.333-2.287,2.008-3.426a.276.276,0,0,0-.056-.4,14.051,14.051,0,0,1-2.469-3.506A14.7,14.7,0,0,1,.075,16.921,14.473,14.473,0,0,1,2.715,7.03,13.722,13.722,0,0,1,4.561,4.918,14.7,14.7,0,0,1,9.246,1.964a14.1,14.1,0,0,1,3.721-.91,14.536,14.536,0,0,1,5.588.511,14.306,14.306,0,0,1,4.592,2.288,14.839,14.839,0,0,1,2.947,2.939,14.614,14.614,0,0,1,1.928,3.451,14.4,14.4,0,0,1,.1,10.21,13.734,13.734,0,0,1-2.775,4.61c-.052.057-.1.12-.147.18-.343.42-.351.425-.086.883.534.922,1.078,1.838,1.616,2.757.039.066.067.139.1.207.251.468.249.462-.216.7a33.7,33.7,0,0,1-4.666,2,24.831,24.831,0,0,1-4.3,1.059,17.585,17.585,0,0,1-2.891.236M2.639,16.208v0c-.258,0-.516,0-.774,0-.169,0-.23.069-.2.24.036.229.053.461.08.691a12.479,12.479,0,0,0,1.286,4.192,13.217,13.217,0,0,0,1.8,2.663c.128.149.192.2.318-.022.988-1.712,1.991-3.416,2.988-5.123q1.366-2.338,2.73-4.676Q12.6,11.2,14.332,8.228c.121-.207.206-.207.326,0q.737,1.257,1.468,2.516,1.753,3.006,3.507,6.011c.65,1.111,1.309,2.216,1.958,3.327q1.138,1.947,2.264,3.9c.089.154.155.18.281.032a13.961,13.961,0,0,0,1.291-1.735A12.885,12.885,0,0,0,26.658,19.7a13.211,13.211,0,0,0,.673-3.168c.024-.277,0-.322-.276-.324-.481,0-.963-.006-1.445,0-.2,0-.281-.081-.275-.278.007-.266,0-.533,0-.8,0-.35.019-.369.361-.37.464,0,.929,0,1.394,0,.162,0,.269-.035.251-.23a13.215,13.215,0,0,0-.488-2.683A12.952,12.952,0,0,0,24.283,7.1c-.131-.152-.219-.179-.367-.024-.351.367-.72.715-1.072,1.081-.126.131-.213.128-.335,0-.223-.239-.455-.469-.693-.693-.125-.117-.116-.2,0-.316.364-.353.715-.721,1.081-1.072.145-.139.158-.233,0-.369a13.356,13.356,0,0,0-2.07-1.442,13.09,13.09,0,0,0-5.313-1.618c-.208-.018-.3.042-.3.265.01.481,0,.963,0,1.444,0,.2-.068.3-.283.3q-.439-.013-.877,0c-.209.006-.294-.08-.291-.29.007-.482,0-.963,0-1.444,0-.215-.077-.307-.29-.271-.482.082-.972.1-1.454.2A13.094,13.094,0,0,0,6.083,5.722c-.141.118-.143.2-.012.33.371.359.729.73,1.1,1.091.115.112.138.2.009.317-.232.218-.456.444-.675.674-.123.129-.217.127-.341,0-.353-.364-.719-.716-1.073-1.08-.137-.141-.224-.123-.351.024a12.991,12.991,0,0,0-2.051,3.291,11.78,11.78,0,0,0-.646,1.9,15.665,15.665,0,0,0-.376,2.208c-.023.23.041.291.254.287.49-.008.981,0,1.471,0,.185,0,.268.075.265.262q-.007.464,0,.928c0,.19-.088.261-.269.258-.249,0-.5,0-.748,0m11.8,15.381a17.277,17.277,0,0,0,2.673-.177,26.374,26.374,0,0,0,7.8-2.447c.179-.086.2-.15.1-.322-.5-.84-.993-1.69-1.486-2.536q-2.487-4.266-4.975-8.532-1.949-3.341-3.9-6.682c-.106-.183-.168-.215-.285-.011-.316.552-.645,1.1-.965,1.646q-2.591,4.444-5.181,8.889Q6.113,25.026,4,28.628c-.121.2-.083.284.122.377a30.014,30.014,0,0,0,5.829,2.047,21.081,21.081,0,0,0,4.5.537" transform="translate(13.539 -0.978)" fill="#1aa499"/>
    <g id="Group_383" data-name="Group 383" transform="translate(0 38.154)">
      <path id="Path_22" data-name="Path 22" d="M180.667,10.392h-1.884V7.841h-6.624v2.551h-1.884V5.2a5.478,5.478,0,0,1,.391-2.094,4.889,4.889,0,0,1,1.087-1.645A4.943,4.943,0,0,1,173.4.384,5.476,5.476,0,0,1,175.471,0h4.247a.954.954,0,0,1,.37.072A.934.934,0,0,1,180.6.58a.954.954,0,0,1,.072.37Zm-8.508-4.435h6.624V1.884h-3.312q-.087,0-.366.025a3.742,3.742,0,0,0-.645.127,4.038,4.038,0,0,0-.772.312,2.707,2.707,0,0,0-.746.58,2.966,2.966,0,0,0-.562.924,3.633,3.633,0,0,0-.221,1.344Z" transform="translate(-170.275 0)" fill="#162b2f"/>
      <path id="Path_23" data-name="Path 23" d="M256.683,3.493a3.849,3.849,0,0,1-.159,1.152,3.244,3.244,0,0,1-.431.895,3.042,3.042,0,0,1-.627.663,3.773,3.773,0,0,1-.743.453,3.572,3.572,0,0,1-.783.257,3.754,3.754,0,0,1-.743.08l3.935,3.4h-2.913l-3.928-3.4h-1.355V5.109H253.2a2.179,2.179,0,0,0,.649-.148,1.612,1.612,0,0,0,.507-.323,1.381,1.381,0,0,0,.33-.489,1.736,1.736,0,0,0,.116-.656V2.3a.583.583,0,0,0-.04-.243.294.294,0,0,0-.1-.123.3.3,0,0,0-.131-.047,1.269,1.269,0,0,0-.127-.007h-6.218v8.508H246.3V.949a.95.95,0,0,1,.073-.37.963.963,0,0,1,.2-.3.9.9,0,0,1,.3-.2A.973.973,0,0,1,247.247,0H254.4a2.271,2.271,0,0,1,1.065.228,2.17,2.17,0,0,1,.707.573,2.22,2.22,0,0,1,.391.743,2.6,2.6,0,0,1,.12.746Z" transform="translate(-233.717 0)" fill="#162b2f"/>
      <path id="Path_24" data-name="Path 24" d="M329.656,10.392h-6.8a3.019,3.019,0,0,1-.855-.138,2.508,2.508,0,0,1-.859-.453,2.536,2.536,0,0,1-.66-.819,2.633,2.633,0,0,1-.264-1.236V.949a.951.951,0,0,1,.072-.37.965.965,0,0,1,.2-.3.9.9,0,0,1,.3-.2A.973.973,0,0,1,321.169,0h8.487V1.884H322.1V7.747a.766.766,0,0,0,.2.565.776.776,0,0,0,.573.2h6.783Zm-.848-4.247h-5.95v-1.9h5.95Z" transform="translate(-295.405 0)" fill="#162b2f"/>
      <path id="Path_25" data-name="Path 25" d="M397.44,10.392h-1.884V7.841h-6.624v2.551h-1.884V5.2a5.477,5.477,0,0,1,.391-2.094,4.889,4.889,0,0,1,1.087-1.645A4.943,4.943,0,0,1,390.171.384,5.476,5.476,0,0,1,392.243,0h4.247a.954.954,0,0,1,.37.072.935.935,0,0,1,.507.507.954.954,0,0,1,.072.37Zm-8.508-4.435h6.624V1.884h-3.312q-.087,0-.366.025a3.742,3.742,0,0,0-.645.127,4.037,4.037,0,0,0-.772.312,2.708,2.708,0,0,0-.746.58,2.966,2.966,0,0,0-.562.924,3.633,3.633,0,0,0-.221,1.344Z" transform="translate(-351.173 0)" fill="#162b2f"/>
      <path id="Path_26" data-name="Path 26" d="M472.615,10.392h-8.6a.97.97,0,0,1-.377-.072.909.909,0,0,1-.5-.5.967.967,0,0,1-.073-.377V0h1.884V8.508h7.66Z" transform="translate(-414.615 0)" fill="#162b2f"/>
    </g>
    <g id="Group_384" data-name="Group 384" transform="translate(0 52.106)">
      <path id="Path_27" data-name="Path 27" d="M180.472,87.09h-4.153V95.6h-1.884V87.09h-4.16V85.206h10.2Z" transform="translate(-170.275 -85.058)" fill="#162b2f"/>
      <rect id="Rectangle_70" data-name="Rectangle 70" width="1.884" height="10.392" transform="translate(11.596 0.148)" fill="#162b2f"/>
      <path id="Path_28" data-name="Path 28" d="M277.138,94.85h-1.9V88.661L271.9,94.538a.821.821,0,0,1-.344.341,1.007,1.007,0,0,1-.474.116.951.951,0,0,1-.46-.116.831.831,0,0,1-.337-.341l-3.356-5.878V94.85h-1.884V85.262a.945.945,0,0,1,.7-.92,1,1,0,0,1,.3-.025,1.015,1.015,0,0,1,.293.065.885.885,0,0,1,.453.388l4.291,7.457,4.29-7.457a.922.922,0,0,1,.46-.391.979.979,0,0,1,.612-.036.943.943,0,0,1,.5.34.924.924,0,0,1,.2.58Z" transform="translate(-249.359 -84.309)" fill="#162b2f"/>
      <path id="Path_29" data-name="Path 29" d="M360.53,95.6h-6.8a3.019,3.019,0,0,1-.855-.138,2.513,2.513,0,0,1-.859-.453,2.54,2.54,0,0,1-.66-.819,2.633,2.633,0,0,1-.264-1.236v-6.8a.953.953,0,0,1,.072-.37.963.963,0,0,1,.2-.3.893.893,0,0,1,.3-.2.973.973,0,0,1,.377-.072h8.487V87.09h-7.552v5.863a.765.765,0,0,0,.2.565.776.776,0,0,0,.573.2h6.783Zm-.848-4.247h-5.95v-1.9h5.95Z" transform="translate(-321.17 -85.058)" fill="#162b2f"/>
      <path id="Path_30" data-name="Path 30" d="M429.487,88.7a3.847,3.847,0,0,1-.159,1.152,3.244,3.244,0,0,1-.431.895,3.044,3.044,0,0,1-.627.663,3.773,3.773,0,0,1-.743.453,3.57,3.57,0,0,1-.783.257,3.754,3.754,0,0,1-.743.08l3.935,3.4h-2.913L423.1,92.2H421.74V90.315H426a2.18,2.18,0,0,0,.649-.148,1.612,1.612,0,0,0,.507-.323,1.38,1.38,0,0,0,.33-.489,1.737,1.737,0,0,0,.116-.656V87.511a.582.582,0,0,0-.04-.243.293.293,0,0,0-.1-.123.3.3,0,0,0-.13-.047c-.046,0-.088-.007-.127-.007h-6.218V95.6H419.1V86.155a.95.95,0,0,1,.073-.37.964.964,0,0,1,.2-.3.9.9,0,0,1,.3-.2.973.973,0,0,1,.377-.072H427.2a2.271,2.271,0,0,1,1.065.228,2.171,2.171,0,0,1,.707.573,2.219,2.219,0,0,1,.391.743,2.6,2.6,0,0,1,.12.746Z" transform="translate(-377.924 -85.058)" fill="#162b2f"/>
    </g>
  </g>
</svg>
